<mxfile host="Electron" modified="2024-12-20T00:52:58.043Z" agent="Mozilla/5.0 (Windows NT 10.0; Win64; x64) AppleWebKit/537.36 (KHTML, like Gecko) draw.io/23.1.5 Chrome/120.0.6099.109 Electron/28.1.0 Safari/537.36" etag="ZDwNudtQIl8qUnid-BWE" version="23.1.5" type="device">
  <diagram name="Page-1" id="vvDyGSXTftxgm5Dh8UzU">
    <mxGraphModel dx="1221" dy="652" grid="1" gridSize="10" guides="1" tooltips="1" connect="1" arrows="1" fold="1" page="1" pageScale="1" pageWidth="850" pageHeight="1100" math="0" shadow="0">
      <root>
        <mxCell id="0" />
        <mxCell id="1" parent="0" />
        <mxCell id="YtfmT4XzMxJ3T0wYnCFE-1" value="&lt;font style=&quot;font-size: 26px;&quot;&gt;Microcontroller Memory&lt;br&gt;&lt;br&gt;&lt;br&gt;&lt;br&gt;&lt;br&gt;&lt;br&gt;&lt;br&gt;&lt;br&gt;&lt;br&gt;&lt;br&gt;&lt;br&gt;&lt;br&gt;&lt;br&gt;&lt;br&gt;&lt;br&gt;&lt;br&gt;&lt;/font&gt;&lt;div style=&quot;font-size: 26px;&quot;&gt;&lt;br&gt;&lt;/div&gt;" style="rounded=0;whiteSpace=wrap;html=1;" vertex="1" parent="1">
          <mxGeometry x="110" y="60" width="260" height="590" as="geometry" />
        </mxCell>
        <mxCell id="YtfmT4XzMxJ3T0wYnCFE-4" value="" style="shape=flexArrow;endArrow=classic;html=1;rounded=0;entryX=0.5;entryY=1;entryDx=0;entryDy=0;strokeWidth=5;" edge="1" parent="1" target="YtfmT4XzMxJ3T0wYnCFE-1">
          <mxGeometry width="50" height="50" relative="1" as="geometry">
            <mxPoint x="240" y="200" as="sourcePoint" />
            <mxPoint x="280" y="160" as="targetPoint" />
          </mxGeometry>
        </mxCell>
        <mxCell id="YtfmT4XzMxJ3T0wYnCFE-6" value="&lt;font style=&quot;font-size: 21px;&quot;&gt;0x00&lt;/font&gt;" style="edgeLabel;html=1;align=center;verticalAlign=middle;resizable=0;points=[];" vertex="1" connectable="0" parent="YtfmT4XzMxJ3T0wYnCFE-4">
          <mxGeometry x="-0.8818" relative="1" as="geometry">
            <mxPoint as="offset" />
          </mxGeometry>
        </mxCell>
        <mxCell id="YtfmT4XzMxJ3T0wYnCFE-8" value="&lt;font style=&quot;font-size: 16px;&quot;&gt;Writing Firmware Ram&lt;br&gt;(0x2000 0000 - 0x 2002 FFFF)&lt;br&gt;(256 KB)&lt;br&gt;&lt;/font&gt;" style="rounded=0;whiteSpace=wrap;html=1;" vertex="1" parent="1">
          <mxGeometry x="370" y="440" width="280" height="80" as="geometry" />
        </mxCell>
        <mxCell id="YtfmT4XzMxJ3T0wYnCFE-9" value="&lt;font style=&quot;font-size: 16px;&quot;&gt;Program being written to flash&lt;br&gt;(0x2004 0000 - 0x 2004 FFFF)&lt;br&gt;(256 KB)&lt;br&gt;&lt;/font&gt;" style="rounded=0;whiteSpace=wrap;html=1;" vertex="1" parent="1">
          <mxGeometry x="370" y="520" width="280" height="80" as="geometry" />
        </mxCell>
        <mxCell id="YtfmT4XzMxJ3T0wYnCFE-10" value="&lt;font style=&quot;font-size: 16px;&quot;&gt;Writing Firmware ROM&lt;br&gt;(0x0800 0000 - 0x 2008 0000)&lt;br&gt;(2048 KB)&lt;br&gt;&lt;/font&gt;" style="rounded=0;whiteSpace=wrap;html=1;" vertex="1" parent="1">
          <mxGeometry x="370" y="250" width="280" height="80" as="geometry" />
        </mxCell>
      </root>
    </mxGraphModel>
  </diagram>
</mxfile>
